<?xml version="1.0" encoding="UTF-8"?>
<svg id="Layer_2" data-name="Layer 2" xmlns="http://www.w3.org/2000/svg" xmlns:xlink="http://www.w3.org/1999/xlink" viewBox="0 0 302 302">
  <defs>
    <style>
      .cls-1 {
        fill: url(#linear-gradient);
      }

      .cls-2 {
        fill: #fff;
      }

      .cls-3 {
        fill: none;
        stroke: url(#linear-gradient-2);
        stroke-miterlimit: 10;
        stroke-width: 2px;
      }
    </style>
    <linearGradient id="linear-gradient" x1="15.64" y1="15.64" x2="286.36" y2="286.36" gradientUnits="userSpaceOnUse">
      <stop offset="0" stop-color="#06b6d4"/>
      <stop offset=".5" stop-color="#3b82f6"/>
      <stop offset="1" stop-color="#6366f1"/>
    </linearGradient>
    <linearGradient id="linear-gradient-2" x1="244.81" y1="313.48" x2="57.19" y2="-11.48" xlink:href="#linear-gradient"/>
  </defs>
  <g id="Layer_1-2" data-name="Layer 1">
    <rect class="cls-1" x="1" y="1" width="300" height="300" rx="50" ry="50"/>
    <rect class="cls-3" x="1" y="1" width="300" height="300" rx="50" ry="50"/>
    <g>
      <path class="cls-2" d="M197.16,41.01c-31.62,0-57.26,25.63-57.26,57.26s25.63,57.26,57.26,57.26,57.26-25.63,57.26-57.26-25.63-57.26-57.26-57.26ZM206.36,105.78c-.64,1.48-5.08,2.82-6.76,3.8-3.15,1.84-5.65,4.5-7.36,7.73-1.09,2.05-1.68,6.34-4.65,6.32-.52,0-2.03-.54-2.35-.88-.7-.72-1.56-3.72-2.15-4.82-2.39-4.49-5.33-7.06-9.75-9.48-1.56-.85-3.52-.83-4.57-2.6-2.21-3.75,3.5-5.02,5.77-6.23,3.36-1.8,5.98-4.27,7.89-7.57.79-1.36,2.15-5.38,2.81-6.05.33-.33,1.84-.87,2.35-.88,2.94-.02,3.56,4.24,4.64,6.32,1.59,3.04,4.19,5.82,7.11,7.6,2.68,1.63,8.86,2.48,7,6.76ZM225.87,86.12c-.45,1.43-3.75,2.14-5.1,3.05-1.16.78-2.58,2.46-3.27,3.67-1.1,1.95-1.39,5.28-4.49,4.29-1.42-.45-1.99-3.18-2.76-4.49-.94-1.59-2.37-2.98-3.97-3.88-1.82-1.03-5.69-1.66-4.27-4.78.52-1.14,5.14-2.72,6.65-4.22,1.8-1.79,2.8-6.73,5.17-6.87,2.28-.14,2.71,2.79,3.48,4.24.91,1.71,2.31,3.2,3.97,4.19,2.06,1.23,5.64,1.51,4.6,4.79Z"/>
      <path class="cls-2" d="M191.59,175.82c-36.94-3.17-66.84-32.58-70.61-69.46-1.43-14.02.91-27.38,6.1-39.22h-62.57c-9.35,0-16.92,7.58-16.92,16.92v160c0,9.35,7.58,16.92,16.92,16.92h140.04c9.35,0,16.92-7.58,16.92-16.92v-71.44c-9.34,2.9-19.42,4.09-29.88,3.19ZM82.15,176.11h50.51c4.67,0,8.46,3.79,8.46,8.46s-3.79,8.46-8.46,8.46h-50.51c-4.67,0-8.46-3.79-8.46-8.46s3.79-8.46,8.46-8.46ZM192.52,231.73h-109.65c-5.07,0-9.18-3.79-9.18-8.46s4.11-8.46,9.18-8.46h109.65c5.07,0,9.18,3.79,9.18,8.46s-4.11,8.46-9.18,8.46Z"/>
    </g>
  </g>
</svg>